<svg xmlns="http://www.w3.org/2000/svg" xmlns:xlink="http://www.w3.org/1999/xlink" width="18.598" height="18.61" viewBox="0 0 18.598 18.61">
  <defs>
    <clipPath id="clip-path">
      <rect id="Rectángulo_1263" data-name="Rectángulo 1263" width="18.598" height="18.61"/>
    </clipPath>
  </defs>
  <g id="Grupo_17314" data-name="Grupo 17314" transform="translate(18.598 18.61) rotate(180)">
    <g id="Grupo_274" data-name="Grupo 274" clip-path="url(#clip-path)">
      <path id="Trazado_824" data-name="Trazado 824" d="M0,9.294C0,7.064.018,4.834,0,2.6A2.561,2.561,0,0,1,2.016.064,2.96,2.96,0,0,1,2.584,0Q5.108,0,7.632,0a2.551,2.551,0,0,1,2.513,2.491c.008,1.135,0,2.27,0,3.4a.849.849,0,1,1-1.7-.009q0-1.593,0-3.187a.874.874,0,0,0-.986-1c-1.6,0-3.207.009-4.81,0a.894.894,0,0,0-.951.941Q1.718,9.3,1.7,15.96a.91.91,0,0,0,.948.949c1.616-.013,3.233,0,4.85-.005a.862.862,0,0,0,.952-.957c0-1.089,0-2.177,0-3.266a.847.847,0,0,1,.661-.83.838.838,0,0,1,.933.433,1.007,1.007,0,0,1,.1.416c.008,1.108.013,2.217,0,3.325A2.534,2.534,0,0,1,7.577,18.6c-1.689.011-3.378.016-5.067,0A2.544,2.544,0,0,1,0,16.024c.017-1.854,0-3.708,0-5.562q0-.584,0-1.168" transform="translate(0 0)"/>
      <path id="Trazado_825" data-name="Trazado 825" d="M138.554,92.065H138.3q-4.661,0-9.323,0a1.846,1.846,0,0,1-.394-.029.828.828,0,0,1-.628-.888.8.8,0,0,1,.723-.764c.374-.029.751-.022,1.127-.022q4.256,0,8.511,0h.193l.07-.09a.7.7,0,0,1-.19-.1q-1.7-1.7-3.4-3.4a.849.849,0,1,1,1.193-1.207c.409.4.813.811,1.219,1.217l3.723,3.723a.875.875,0,0,1,0,1.408q-2.442,2.443-4.884,4.886a.9.9,0,0,1-.773.316.848.848,0,0,1-.546-1.4c.042-.051.091-.1.138-.142l3.317-3.318c.049-.049.1-.1.181-.192" transform="translate(-122.878 -81.91)"/>
    </g>
  </g>
</svg>
