<svg id="Grupo_284" data-name="Grupo 284" xmlns="http://www.w3.org/2000/svg" xmlns:xlink="http://www.w3.org/1999/xlink" width="22.397" height="26.88" viewBox="0 0 22.397 26.88">
  <defs>
    <clipPath id="clip-path">
      <rect id="Rectángulo_1267" data-name="Rectángulo 1267" width="22.397" height="26.88"/>
    </clipPath>
  </defs>
  <g id="Grupo_283" data-name="Grupo 283" clip-path="url(#clip-path)">
    <path id="Trazado_840" data-name="Trazado 840" d="M99.074,0a6.88,6.88,0,1,0,6.884,6.7A6.878,6.878,0,0,0,99.074,0m-.036,1.223a5.657,5.657,0,1,1-5.62,5.52,5.65,5.65,0,0,1,5.62-5.52" transform="translate(-87.881 0)"/>
    <path id="Trazado_841" data-name="Trazado 841" d="M11.205,320.64a11.294,11.294,0,0,0-5.911,1.734A11.02,11.02,0,0,0,.044,330.9a9.265,9.265,0,0,0-.044.935.607.607,0,0,0,.623.669.63.63,0,0,0,.594-.68,9.837,9.837,0,0,1,3.189-7.244,9.085,9.085,0,0,1,3.963-2.254,9.743,9.743,0,0,1,10.51,3.21,9.417,9.417,0,0,1,2.3,6.238.681.681,0,0,0,.287.627.56.56,0,0,0,.62.023.547.547,0,0,0,.311-.537c-.067-.752-.109-1.51-.234-2.253a9.7,9.7,0,0,0-1.186-3.21,11.612,11.612,0,0,0-1.763-2.347,10.911,10.911,0,0,0-5.918-3.182c-.687-.13-1.391-.172-2.087-.254" transform="translate(0 -305.625)"/>
  </g>
</svg>
